/* XPM */
static char *paused[]={
"32 32 3 1",
"a c None",
". c None",
"# c #00ffff",
"................................",
"................................",
"................................",
"................................",
"................................",
"......#######......#######......",
"......#######......#######......",
"......#######......#######......",
"......#######.a....#######......",
"......#######aa....#######......",
"......#######aaaa..#######......",
"......#######aaaaaa#######......",
"......#######aaaaaa#######......",
"......#######aaaaaa#######......",
"......#######aaaaaa#######......",
"......#######aaaaaa#######......",
"......#######aaaaaa#######a.....",
"......#######aaaaaa#######a.....",
"......#######aaaaaa#######a.....",
"......#######aaaaaa#######a.....",
"......#######aaaaa.#######a.....",
"......#######aaa...#######a.....",
"......#######......#######......",
"......#######......#######......",
"......#######......#######......",
"......#######......#######......",
"................................",
"................................",
"................................",
"................................",
"................................",
"................................"};

 	  	 
