/* XPM */
static const char * mondrian_xpm[] = {
"32 32 9 1",
" 	c None",
".	c #000000",
"+	c #FF0000",
"@	c #FFFFFF",
"#	c #E51F1F",
"$	c #0000FF",
"%	c #1FE532",
"&	c #FFFF00",
"*	c #00BF00",
"................................",
".++++++.@@@@@#@@@@@@@@@@@@@@@@@.",
".++++++.@@@@@@@@@@@@@@@@@@@@@@@.",
".++++++.@@@@@#@@@@@@@@@@@@@@@@@.",
".++++++.@@@@@@@@@@@@@@@@@@@@@@@.",
".++++++.@@@@@#@@@@@@@@@@@@@@@@@.",
".++++++.@@@@@@@@@@@@@@@@@@@@@@@.",
".++++++.@@@@@#@@@@@@@@@@@@@@@@@.",
"................................",
".@@@@@@.@@@@@#@@@@@@@@@@@@.$$$$.",
".@@@@@@.@@@@@@@@@@@@@@@@@@.$$$$.",
".@@@@@@.@@@@@#@@@@@@@@@@@@.$$$$.",
".@@@@@@.@@@@@@@@@@@@@@@@@@.$$$$.",
".@@@@@@.@@@@@#@@@@@@@@@@@@.$$$$.",
".@@@@@@.@@@@@@@@@@@@@@@@@@......",
".@@@@@@.@@@@@#@@@@@@@@@@@@.@@@@.",
"%@%@%@%.%@%@%@%@%@%@%@%@%@%@%@%.",
".@@@@@@.@@@@@#@@@@@@@@@@@@.@@@@.",
".@@@@@@.@@@@@@@@@@@@@@@@@@.@@@@.",
".@@@@@@.@@@@@#@@@@@@@@@@@@.@@@@.",
".@@@@@@.@@@@@@@@@@@@@@@@@@.@@@@.",
".@@@@@@.@@@@@#@@@@@@@@@@@@.@@@@.",
".@@@@@@.@@@@@@@@@@@@@@@@@@.@@@@.",
".@@@@@@.@@@@@#@@@@@@@@@@@@.@@@@.",
".@@@@@@....................@@@@.",
".@@@@@@.&&&&&#&&&&&&.*****.@@@@.",
".@@@@@@.&&&&&&&&&&&&.*****.@@@@.",
".@@@@@@.&&&&&#&&&&&&.*****.@@@@.",
".@@@@@@.&&&&&&&&&&&&.*****.@@@@.",
".@@@@@@.&&&&&#&&&&&&.*****.@@@@.",
".@@@@@@.&&&&&&&&&&&&.*****.@@@@.",
".............#.................."};
