/* XPM */
static const char *const fullscreen_xpm[] = {
/* columns rows colors chars-per-pixel */
"24 24 27 1",
"  c #555753",
". c #595B57",
"X c #595C57",
"o c #5A5C58",
"O c #81837E",
"+ c #204A87",
"@ c #214B87",
"# c #214B88",
"$ c #254E89",
"% c #45628A",
"& c #5071A0",
"* c #5172A1",
"= c #729FCF",
"- c #739FCF",
"; c #848781",
": c #848885",
"> c #888A85",
", c #898B86",
"< c #8B8E88",
"1 c #88ABD3",
"2 c #90B3D9",
"3 c #91B4D9",
"4 c #E7E7E4",
"5 c #EEEEEC",
"6 c #F0F0F0",
"7 c #F1F1F0",
"8 c None",
/* pixels */
"88888888888oo88888888888",
"8888888888X;OX8888888888",
"888888888      888888888",
"888888888888888888888888",
"8888%$+@@+++++@@+@$%8888",
"8888#12322223223221#8888",
"8888+2-----=------3+8888",
"8888+&+++++++++++#&+8888",
"8888:75555555555557:8888",
"88 8:75555555555557>8 88",
"8X 8>75555555555557>8 X8",
"o; 8>75555555555557>8 ;o",
"oO 8>75555555555557>8 Oo",
"8X 8>75555555555557>8 X8",
"88 8>75555555555557>8 88",
"8888>75555555555557>8888",
"8888,75555555555557>8888",
"8888:75555555555557>8888",
"8888<47777777777774<8888",
"88888,,,>>>>>>>>>>,88888",
"888888888888888888888888",
"888888888      888888888",
"8888888888X;OX8888888888",
"88888888888oo88888888888"
};
