<?xml version="1.0" standalone="no"?>
<!DOCTYPE svg PUBLIC "-//W3C//DTD SVG 20010904//EN" 
"http://www.w3.org/TR/2001/REC-SVG-20010904/DTD/svg10.dtd"> 
<svg xmlns="http://www.w3.org/2000/svg" xmlns:xlink="http://www.w3.org/1999/xlink" 
    width="21.17cm" height="22.93cm" viewBox="0 0 600 650 "> 
<title>SVG Picture created as SVG Test Window 7.svg </title>
<desc>Picture generated by wxSVG v0100 </desc>
<g style="fill:black; stroke:black; stroke-width:1">
</g>
<g style="fill:#FFFFFF; fill-opacity:1.00; stroke:#00FF00; stroke-opacity:1.00; stroke-linecap:round; stroke-linejoin:round; stroke-width:1" 
   transform="translate(0.00 0.00) scale(1.00 1.00)">
 <text x="30" y="22" style="font-family:DejaVu Sans; font-weight:normal; font-style:normal; font-size:10pt; fill:#FF0000; fill-opacity:1.00; stroke:#FF0000; stroke-opacity:1.00; stroke-width:0;"  transform="rotate( -0.00 30 22 )  " >Red = Clipping Off</text> 
 <text x="30" y="42" style="font-family:DejaVu Sans; font-weight:normal; font-style:normal; font-size:10pt; fill:#00FF00; fill-opacity:1.00; stroke:#00FF00; stroke-opacity:1.00; stroke-width:0;"  transform="rotate( -0.00 30 42 )  " >Green = Clipping On</text> 
</g>
<g style="fill:#FA8072; fill-opacity:0.0; stroke:#000000; stroke-opacity:1.00; stroke-linecap:round; stroke-linejoin:round; stroke-width:21" 
   transform="translate(0.00 0.00) scale(1.00 1.00)">
<path d="M80 87 L110 125" /> 
<path d="M110 125 L155 50" /> 
</g>
<g style="fill:#FA8072; fill-opacity:0.0; stroke:#FF0000; stroke-opacity:1.00; stroke-linecap:round; stroke-linejoin:round; stroke-width:1" 
   transform="translate(0.00 0.00) scale(1.00 1.00)">
 <rect x="80" y="50" width="75" height="75" rx="0.00"  /> 
</g>
<g style="fill:#FA8072; fill-opacity:0.0; stroke:#00FF00; stroke-opacity:1.00; stroke-linecap:round; stroke-linejoin:round; stroke-width:1" 
   transform="translate(0.00 0.00) scale(1.00 1.00)">
 <rect x="180" y="50" width="75" height="75" rx="0.00"  /> 
</g>
<defs>
<clipPath id="clip1">
<rect id="cliprect1" x="180" y="50" width="75" height="75" style="stroke: gray; fill: none;"/>
</clipPath>
</defs>
<g style="clip-path: url(#clip1);">
<g style="fill:#FA8072; fill-opacity:0.0; stroke:#00FF00; stroke-opacity:1.00; stroke-linecap:round; stroke-linejoin:round; stroke-width:1" 
   transform="translate(0.00 0.00) scale(1.00 1.00)">
</g>
<g style="fill:#FA8072; fill-opacity:0.0; stroke:#000000; stroke-opacity:1.00; stroke-linecap:round; stroke-linejoin:round; stroke-width:21" 
   transform="translate(0.00 0.00) scale(1.00 1.00)">
<path d="M180 87 L210 125" /> 
<path d="M210 125 L255 50" /> 
</g>
</g>
<g style="fill:#FA8072; fill-opacity:0.0; stroke:#000000; stroke-opacity:1.00; stroke-linecap:round; stroke-linejoin:round; stroke-width:21" 
   transform="translate(0.00 0.00) scale(1.00 1.00)"></g>
<g style="fill:#FA8072; fill-opacity:0.0; stroke:#00FF00; stroke-opacity:1.00; stroke-linecap:round; stroke-linejoin:round; stroke-width:1" 
   transform="translate(0.00 0.00) scale(1.00 1.00)">
 <rect x="80" y="150" width="75" height="75" rx="0.00"  /> 
</g>
<defs>
<clipPath id="clip2">
<rect id="cliprect2" x="80" y="150" width="75" height="75" style="stroke: gray; fill: none;"/>
</clipPath>
</defs>
<g style="clip-path: url(#clip2);">
<g style="fill:#FA8072; fill-opacity:0.0; stroke:#00FF00; stroke-opacity:1.00; stroke-linecap:round; stroke-linejoin:round; stroke-width:1" 
   transform="translate(0.00 0.00) scale(1.00 1.00)">
</g>
<g style="fill:#FA8072; fill-opacity:0.0; stroke:#000000; stroke-opacity:1.00; stroke-linecap:round; stroke-linejoin:round; stroke-width:21" 
   transform="translate(0.00 0.00) scale(1.00 1.00)">
<path d="M80 187 L110 225" /> 
<path d="M110 225 L155 150" /> 
</g>
</g>
<g style="fill:#FA8072; fill-opacity:0.0; stroke:#000000; stroke-opacity:1.00; stroke-linecap:round; stroke-linejoin:round; stroke-width:21" 
   transform="translate(0.00 0.00) scale(1.00 1.00)"></g>
<g style="fill:#FA8072; fill-opacity:0.0; stroke:#00FF00; stroke-opacity:1.00; stroke-linecap:round; stroke-linejoin:round; stroke-width:1" 
   transform="translate(0.00 0.00) scale(1.00 1.00)">
 <rect x="180" y="150" width="75" height="75" rx="0.00"  /> 
</g>
<defs>
<clipPath id="clip3">
<rect id="cliprect3" x="180" y="150" width="75" height="75" style="stroke: gray; fill: none;"/>
</clipPath>
</defs>
<g style="clip-path: url(#clip3);">
<g style="fill:#FA8072; fill-opacity:0.0; stroke:#00FF00; stroke-opacity:1.00; stroke-linecap:round; stroke-linejoin:round; stroke-width:1" 
   transform="translate(0.00 0.00) scale(1.00 1.00)">
</g>
<g style="fill:#FA8072; fill-opacity:0.0; stroke:#000000; stroke-opacity:1.00; stroke-linecap:round; stroke-linejoin:round; stroke-width:21" 
   transform="translate(0.00 0.00) scale(1.00 1.00)">
<path d="M180 187 L210 225" /> 
<path d="M210 225 L255 150" /> 
</g>
</g>
<g style="fill:#FA8072; fill-opacity:0.0; stroke:#000000; stroke-opacity:1.00; stroke-linecap:round; stroke-linejoin:round; stroke-width:21" 
   transform="translate(0.00 0.00) scale(1.00 1.00)"></g>
<g style="fill:#FA8072; fill-opacity:0.0; stroke:#00FF00; stroke-opacity:1.00; stroke-linecap:round; stroke-linejoin:round; stroke-width:1" 
   transform="translate(0.00 0.00) scale(1.00 1.00)">
 <rect x="80" y="250" width="50" height="65" rx="0.00"  /> 
 <rect x="105" y="260" width="50" height="65" rx="0.00"  /> 
</g>
<defs>
<clipPath id="clip4">
<rect id="cliprect4" x="80" y="250" width="50" height="65" style="stroke: gray; fill: none;"/>
</clipPath>
</defs>
<g style="clip-path: url(#clip4);">
<g style="fill:#FA8072; fill-opacity:0.0; stroke:#00FF00; stroke-opacity:1.00; stroke-linecap:round; stroke-linejoin:round; stroke-width:1" 
   transform="translate(0.00 0.00) scale(1.00 1.00)">
</g>
<defs>
<clipPath id="clip5">
<rect id="cliprect5" x="105" y="260" width="50" height="65" style="stroke: gray; fill: none;"/>
</clipPath>
</defs>
<g style="clip-path: url(#clip5);">
<g style="fill:#FA8072; fill-opacity:0.0; stroke:#00FF00; stroke-opacity:1.00; stroke-linecap:round; stroke-linejoin:round; stroke-width:1" 
   transform="translate(0.00 0.00) scale(1.00 1.00)">
</g>
<g style="fill:#FA8072; fill-opacity:0.0; stroke:#000000; stroke-opacity:1.00; stroke-linecap:round; stroke-linejoin:round; stroke-width:21" 
   transform="translate(0.00 0.00) scale(1.00 1.00)">
<path d="M80 287 L110 325" /> 
<path d="M110 325 L155 250" /> 
</g>
</g>
<g style="fill:#FA8072; fill-opacity:0.0; stroke:#000000; stroke-opacity:1.00; stroke-linecap:round; stroke-linejoin:round; stroke-width:21" 
   transform="translate(0.00 0.00) scale(1.00 1.00)"></g>
</g>
<g style="fill:#FA8072; fill-opacity:0.0; stroke:#000000; stroke-opacity:1.00; stroke-linecap:round; stroke-linejoin:round; stroke-width:21" 
   transform="translate(0.00 0.00) scale(1.00 1.00)"></g>
</svg>
